<svg width="181" height="181" viewBox="0 0 181 181" fill="none" xmlns="http://www.w3.org/2000/svg">
<g id="STATUS">
<circle id="Ellipse 2" cx="90.5" cy="90.5" r="90.5" fill="black"/>
<path id="Vector" d="M119.02 42C115.2 42.022 112.495 46.7892 111.465 48.9492C111.145 49.5712 111 50 111 50C110.694 50.152 110.407 50.337 110.137 50.543C105.155 53.631 101.91 58.858 97 66C92.874 72 83.468 73.25 75 78C66.532 82.75 57 91 57 106V114C57 117.337 54.337 120 51 120C47.663 120 45 117.337 45 114C45 105.37 47.3689 99.8022 49.6641 96.3594C51.9593 92.9166 54.0273 91.7149 54.0273 91.7149C54.4058 91.4955 54.7019 91.1581 54.8703 90.7545C55.0387 90.3508 55.0701 89.903 54.9598 89.4797C54.8494 89.0565 54.6033 88.681 54.2593 88.411C53.9152 88.1409 53.4921 87.9911 53.0547 87.9844C52.6727 87.9793 52.2972 88.0837 51.9727 88.2852C51.9727 88.2852 49.0407 90.0834 46.3359 94.1407C43.6311 98.1979 41 104.63 41 114C41 119.499 45.501 124 51 124C53.6165 124 55.9901 122.961 57.7773 121.301C59.0343 124.06 61.773 126 65 126H95C96.104 126 97 125.104 97 124C97 118 93 116 89 116H87C90.34 116 96.4528 113.203 98.3828 107.625L93.1992 96.8711C92.7192 95.8751 93.1368 94.6772 94.1328 94.1992C95.1208 93.7232 96.3208 94.1368 96.8008 95.1328L103.188 108.375C106.104 114.295 109.283 120.494 110.695 122.348C112.345 124.514 114.64 126 117.25 126H122.996C124.126 126 124.986 125.08 125 124C125.002 123.856 124.989 123.709 124.961 123.563C124.427 120.881 122.91 118.462 119.25 117.43L113.348 98.4961C118.47 93.4761 121 88.072 121 82C121 77.214 119.636 73.596 119 72H121C131.062 72 132.573 65.9564 132.941 64.4844C133.177 63.5424 132.701 62.5659 131.812 62.1719C131.799 62.1659 130.306 61.4357 129.664 59.6797C127.706 53.1177 124.13 49.4732 121 48.3672V44C121 42.912 120.108 41.994 119.02 42ZM122.234 58.0039C122.85 58.0039 123.615 58.1556 124.23 58.7696C125.46 59.9996 124.848 61.8477 124.848 61.8477C124.848 61.8477 123 62.4585 121.77 61.2305C120.54 60.0005 121.156 58.1563 121.156 58.1563C121.156 58.1563 121.619 58.0039 122.234 58.0039ZM131 78C128.352 78 126.501 78.7824 124.895 79.6524C124.957 80.4084 125 81.184 125 82C125 85.608 124.2 89.0617 122.668 92.3477C127.978 90.0077 131 86 131 86H136.992C138.132 86 139.004 85.068 139 84C139 83.812 138.97 83.6217 138.91 83.4297C138.198 81.0897 135.97 78 131 78Z" fill="white"/>
</g>
</svg>
